<svg width="578" height="174" viewBox="0 0 578 174" fill="none" xmlns="http://www.w3.org/2000/svg">
<path d="M126.752 6.76954C124.592 8.92954 123.512 11.5215 123.512 14.7615V76.7535H23.2881V14.7615C23.2881 11.5215 22.2082 8.92954 20.0482 6.76954C17.8882 4.60953 15.2962 3.52954 12.0562 3.52954C8.81618 3.52954 6.22418 4.60953 4.06418 6.76954C1.90418 8.92954 0.824219 11.5215 0.824219 14.7615V160.994C0.824219 164.234 1.90418 166.826 4.06418 168.986C6.22418 171.146 8.81618 172.226 12.0562 172.226C15.2962 172.226 17.8882 171.146 20.0482 168.986C22.2082 166.826 23.2881 164.234 23.2881 160.994V96.6255H123.512V160.994C123.512 164.234 124.592 166.826 126.752 168.986C128.912 171.146 131.504 172.226 134.744 172.226C137.768 172.226 140.36 171.362 142.52 169.202C144.68 167.042 145.76 164.45 145.76 160.994V14.7615C145.76 11.5215 144.68 8.92954 142.52 6.76954C140.36 4.60953 137.768 3.52954 134.744 3.52954C131.504 3.52954 128.912 4.60953 126.752 6.76954Z" fill="#EF4023"/>
<path d="M282.293 70.9215C270.629 59.2575 256.589 53.2095 239.957 53.2095C223.541 53.2095 209.285 59.2575 197.621 70.9215C185.957 82.5855 180.125 96.6255 180.125 113.257C180.125 129.889 185.957 143.929 197.621 155.593C209.285 167.257 223.541 173.089 239.957 173.089C254.861 173.089 268.036 168.337 279.268 158.617V162.721C279.268 165.745 280.133 168.121 282.293 170.065C284.237 172.225 286.613 173.089 289.637 173.089C292.445 173.089 294.82 172.225 296.98 170.065C298.924 168.121 300.004 165.745 300.004 162.721V113.257C300.004 96.6255 294.173 82.5855 282.293 70.9215ZM239.957 152.353C229.157 152.353 219.869 148.681 212.309 140.905C204.533 133.345 200.86 124.057 200.86 113.257C200.86 102.457 204.533 93.1695 212.309 85.6095C219.869 77.8335 229.157 73.9455 239.957 73.9455C250.757 73.9455 260.044 77.8335 267.604 85.6095C275.38 93.1695 279.268 102.457 279.268 113.257C279.268 124.057 275.38 133.345 267.604 140.905C260.044 148.681 250.757 152.353 239.957 152.353Z" fill="#EF4023"/>
<path d="M377.069 86.6895L446.189 19.2975C448.349 17.3535 449.429 14.7615 449.429 11.7375C449.429 8.71353 448.565 6.33753 446.405 4.17753C444.245 2.01753 441.869 0.937527 438.845 0.937527C435.821 0.721527 433.229 1.80152 431.069 3.96153L356.981 76.3215V14.3295C356.981 11.3055 355.901 8.71353 353.741 6.55353C351.581 4.39353 348.989 3.52953 346.181 3.52953C343.157 3.52953 340.565 4.39353 338.405 6.55353C336.245 8.71353 335.381 11.3055 335.381 14.3295V161.858C335.381 164.666 336.245 167.258 338.405 169.418C340.565 171.578 343.157 172.658 346.181 172.658C348.989 172.658 351.581 171.578 353.741 169.418C355.901 167.258 356.981 164.666 356.981 161.858V97.0575L431.069 169.418C433.229 171.578 435.605 172.658 438.629 172.658C441.653 172.658 444.245 171.578 446.405 169.202C448.565 167.258 449.429 164.666 449.429 161.642C449.429 158.618 448.349 156.026 446.189 154.082L377.069 86.6895Z" fill="#020001"/>
<path d="M559.464 70.9215C547.8 59.2575 533.76 53.2095 517.128 53.2095C500.712 53.2095 486.456 59.2575 474.792 70.9215C463.128 82.5855 457.296 96.6255 457.296 113.257C457.296 129.889 463.128 143.929 474.792 155.593C486.456 167.257 500.712 173.089 517.128 173.089C532.032 173.089 545.208 168.337 556.44 158.617V162.721C556.44 165.745 557.304 168.121 559.464 170.065C561.408 172.225 563.784 173.089 566.808 173.089C569.616 173.089 571.992 172.225 574.152 170.065C576.096 168.121 577.176 165.745 577.176 162.721V113.257C577.176 96.6255 571.344 82.5855 559.464 70.9215ZM517.128 152.353C506.328 152.353 497.04 148.681 489.48 140.905C481.704 133.345 478.032 124.057 478.032 113.257C478.032 102.457 481.704 93.1695 489.48 85.6095C497.04 77.8335 506.328 73.9455 517.128 73.9455C527.928 73.9455 537.216 77.8335 544.776 85.6095C552.552 93.1695 556.44 102.457 556.44 113.257C556.44 124.057 552.552 133.345 544.776 140.905C537.216 148.681 527.928 152.353 517.128 152.353Z" fill="#020001"/>
</svg>
