<svg width="1076" height="196" viewBox="0 0 1076 196" fill="none" xmlns="http://www.w3.org/2000/svg">
<circle cx="1049.5" cy="97.5" r="26.5" fill="#EF4023"/>
<path d="M111.127 3.81531C109.226 5.71611 108.275 7.99707 108.275 10.8483V65.4012H20.0783V10.8483C20.0783 7.99707 19.128 5.71611 17.2272 3.81531C15.3264 1.91451 13.0454 0.964111 10.1942 0.964111C7.34299 0.964111 5.06202 1.91451 3.16122 3.81531C1.26042 5.71611 0.310059 7.99707 0.310059 10.8483V139.532C0.310059 142.384 1.26042 144.665 3.16122 146.565C5.06202 148.466 7.34299 149.417 10.1942 149.417C13.0454 149.417 15.3264 148.466 17.2272 146.565C19.128 144.665 20.0783 142.384 20.0783 139.532V82.8886H108.275V139.532C108.275 142.384 109.226 144.665 111.127 146.565C113.027 148.466 115.308 149.417 118.16 149.417C120.821 149.417 123.102 148.656 125.003 146.755C126.903 144.855 127.854 142.574 127.854 139.532V10.8483C127.854 7.99707 126.903 5.71611 125.003 3.81531C123.102 1.91451 120.821 0.964111 118.16 0.964111C115.308 0.964111 113.027 1.91451 111.127 3.81531Z" fill="#020001"/>
<path d="M248.002 60.2692C237.738 50.0049 225.383 44.6826 210.746 44.6826C196.3 44.6826 183.755 50.0049 173.491 60.2692C163.226 70.5335 158.094 82.8887 158.094 97.5249C158.094 112.161 163.226 124.516 173.491 134.781C183.755 145.045 196.3 150.177 210.746 150.177C223.862 150.177 235.457 145.995 245.341 137.442V141.053C245.341 143.714 246.101 145.805 248.002 147.516C249.713 149.417 251.804 150.177 254.465 150.177C256.936 150.177 259.027 149.417 260.928 147.516C262.638 145.805 263.589 143.714 263.589 141.053V97.5249C263.589 82.8887 258.456 70.5335 248.002 60.2692ZM210.746 131.929C201.242 131.929 193.069 128.698 186.416 121.855C179.573 115.202 176.342 107.029 176.342 97.5249C176.342 88.0209 179.573 79.8474 186.416 73.1946C193.069 66.3517 201.242 62.9303 210.746 62.9303C220.25 62.9303 228.424 66.3517 235.077 73.1946C241.919 79.8474 245.341 88.0209 245.341 97.5249C245.341 107.029 241.919 115.202 235.077 121.855C228.424 128.698 220.25 131.929 210.746 131.929Z" fill="#020001"/>
<path d="M373.033 141.433C373.033 139.152 372.273 137.251 370.942 135.731L334.067 90.4918L369.042 59.3187C370.942 57.798 372.083 55.5171 372.083 52.8559C372.083 50.575 371.133 48.6742 369.612 46.9635C367.901 45.0627 365.81 43.9222 363.149 43.9222C360.868 43.9222 358.777 44.8726 357.257 46.3932L311.067 87.6406V10.278C311.067 7.61691 310.117 5.33595 308.406 3.62523C306.695 1.91451 304.414 0.964111 301.753 0.964111C298.902 0.964111 296.621 1.91451 294.911 3.62523C293.2 5.33595 292.439 7.61691 292.439 10.278V140.103C292.439 142.954 293.2 145.235 294.911 146.946C296.621 148.656 298.902 149.417 301.753 149.417C304.414 149.417 306.695 148.656 308.406 146.946C310.117 145.235 311.067 142.954 311.067 140.103V111.02L320.571 102.657L356.686 147.326C358.397 149.607 360.678 150.747 363.529 150.747C365.62 150.747 367.711 149.987 369.612 148.466C371.893 146.565 373.033 144.284 373.033 141.433Z" fill="#020001"/>
<path d="M437.77 150.177C452.406 150.177 464.762 145.045 475.026 134.781C485.29 124.516 490.612 112.161 490.612 97.5249C490.612 82.8887 485.29 70.5335 475.026 60.2692C464.762 50.0049 452.406 44.6826 437.77 44.6826C423.134 44.6826 410.779 50.0049 400.515 60.2692C390.25 70.5335 385.118 82.8887 385.118 97.5249C385.118 112.161 390.25 124.516 400.515 134.781C410.779 145.045 423.134 150.177 437.77 150.177ZM437.77 62.9303C447.274 62.9303 455.448 66.3517 462.291 73.0045C468.943 79.8474 472.365 88.0209 472.365 97.5249C472.365 107.029 468.943 115.202 462.291 121.855C455.448 128.698 447.274 131.929 437.77 131.929C428.266 131.929 420.093 128.698 413.44 121.855C406.597 115.202 403.366 107.029 403.366 97.5249C403.366 88.0209 406.597 79.8474 413.44 73.0045C420.093 66.3517 428.266 62.9303 437.77 62.9303Z" fill="#020001"/>
<path d="M609.181 134.78C598.917 145.235 586.561 150.367 571.925 150.367C557.289 150.367 544.934 145.235 534.67 134.78C524.405 124.516 519.273 112.161 519.273 97.5247V10.0879C519.273 7.6169 520.033 5.52603 521.934 3.62523C523.645 1.91451 525.736 0.964111 528.397 0.964111C530.868 0.964111 532.959 1.91451 534.67 3.62523C536.57 5.52603 537.521 7.6169 537.521 10.0879V57.6079C547.215 49.0543 558.81 44.8726 571.925 44.8726C586.561 44.8726 598.917 50.0047 609.181 60.2691C619.445 70.5334 624.767 83.0787 624.767 97.5247C624.767 112.161 619.445 124.516 609.181 134.78ZM571.925 63.1203C562.421 63.1203 554.248 66.5417 547.595 73.1945C540.752 79.8473 537.521 88.0207 537.521 97.5247C537.521 107.029 540.752 115.202 547.595 122.045C554.248 128.698 562.421 132.119 571.925 132.119C581.429 132.119 589.603 128.698 596.255 122.045C603.098 115.202 606.52 107.029 606.52 97.5247C606.52 88.0207 603.098 79.8473 596.255 73.1945C589.603 66.5417 581.429 63.1203 571.925 63.1203Z" fill="#020001"/>
<path d="M732.7 53.8064C732.7 50.3849 730.609 47.9139 726.808 46.3933C725.287 45.823 723.766 45.4429 722.246 45.4429C718.824 45.4429 716.353 47.3437 714.833 50.9552L684.23 119.954L649.445 50.7651C647.544 47.3437 644.883 45.4429 641.462 45.4429C639.941 45.4429 638.801 45.823 637.66 46.2032C635.949 46.9635 634.619 48.104 633.669 49.4345C632.528 50.9552 632.148 52.4758 632.148 53.9965C632.148 55.5171 632.338 56.8477 633.098 57.9881L675.866 139.152L656.858 181.92C656.098 183.441 655.718 184.962 655.718 186.482C655.718 189.904 657.619 192.375 661.42 193.895C663.131 194.656 664.652 195.036 665.982 195.036C669.404 195.036 671.875 193.135 673.395 189.143L731.56 58.3683C732.32 56.6576 732.7 55.1369 732.7 53.8064Z" fill="#020001"/>
<path d="M830.122 60.2692C819.858 50.0049 807.503 44.6826 792.867 44.6826C778.421 44.6826 765.875 50.0049 755.611 60.2692C745.347 70.5335 740.214 82.8887 740.214 97.5249C740.214 112.161 745.347 124.516 755.611 134.781C765.875 145.045 778.421 150.177 792.867 150.177C805.982 150.177 817.577 145.995 827.461 137.442V141.053C827.461 143.714 828.221 145.805 830.122 147.516C831.833 149.417 833.924 150.177 836.585 150.177C839.056 150.177 841.147 149.417 843.048 147.516C844.758 145.805 845.709 143.714 845.709 141.053V97.5249C845.709 82.8887 840.577 70.5335 830.122 60.2692ZM792.867 131.929C783.363 131.929 775.189 128.698 768.536 121.855C761.693 115.202 758.462 107.029 758.462 97.5249C758.462 88.0209 761.693 79.8474 768.536 73.1946C775.189 66.3517 783.363 62.9303 792.867 62.9303C802.371 62.9303 810.544 66.3517 817.197 73.1946C824.04 79.8474 827.461 88.0209 827.461 97.5249C827.461 107.029 824.04 115.202 817.197 121.855C810.544 128.698 802.371 131.929 792.867 131.929Z" fill="#020001"/>
<path d="M962.186 149.987C964.847 149.987 967.128 149.036 969.029 147.136C970.93 145.235 971.69 142.954 971.69 140.293V91.4421C971.69 78.1365 966.938 66.7317 957.624 57.2277C948.12 47.7237 936.525 42.9717 923.22 42.9717C909.724 42.9717 898.319 47.7237 888.815 57.2277C879.311 66.7317 874.559 78.1365 874.559 91.4421V140.293C874.559 142.954 875.51 145.235 877.41 147.136C879.311 149.036 881.592 149.797 884.063 149.797C886.724 149.797 889.005 149.036 890.906 147.136C892.807 145.235 893.567 142.954 893.567 140.293V91.4421C893.567 83.4587 896.608 76.4258 902.311 70.7234C908.013 64.8309 915.046 61.9797 923.22 61.9797C931.393 61.9797 938.236 64.8309 944.128 70.7234C949.831 76.4258 952.682 83.4587 952.682 91.4421V140.483C952.682 142.954 953.632 145.235 955.533 147.136C957.434 149.036 959.715 149.987 962.186 149.987Z" fill="#020001"/>
</svg>
